<mxfile host="65bd71144e">
    <diagram name="Page-1" id="e56a1550-8fbb-45ad-956c-1786394a9013">
        <mxGraphModel dx="1778" dy="960" grid="1" gridSize="10" guides="1" tooltips="1" connect="1" arrows="1" fold="1" page="1" pageScale="1" pageWidth="1100" pageHeight="850" background="none" math="0" shadow="0">
            <root>
                <mxCell id="0"/>
                <mxCell id="1" parent="0"/>
                <mxCell id="9" value="" style="group" parent="1" vertex="1" connectable="0">
                    <mxGeometry x="470" y="50" width="610" height="320" as="geometry"/>
                </mxCell>
                <mxCell id="92ZO8FLdLCJEEevnyuCZ-44" value="func" style="swimlane;fontStyle=0;childLayout=stackLayout;horizontal=1;startSize=30;horizontalStack=0;resizeParent=1;resizeParentMax=0;resizeLast=0;collapsible=1;marginBottom=0;whiteSpace=wrap;html=1;" parent="9" vertex="1">
                    <mxGeometry x="109.4871794871795" y="55.58823529411765" width="140.76923076923077" height="117.3529411764706" as="geometry">
                        <mxRectangle x="430" y="270" width="60" height="30" as="alternateBounds"/>
                    </mxGeometry>
                </mxCell>
                <mxCell id="92ZO8FLdLCJEEevnyuCZ-45" value="GetName&lt;div&gt;&lt;br&gt;&lt;div&gt;equip (AMateria* m)&lt;/div&gt;&lt;div&gt;&lt;br&gt;&lt;/div&gt;&lt;div&gt;unequip (int idx)&lt;/div&gt;&lt;div&gt;&lt;br&gt;&lt;/div&gt;&lt;div&gt;use (int idx, ICharacter&amp;amp; target)&lt;/div&gt;&lt;/div&gt;" style="text;strokeColor=none;fillColor=none;align=left;verticalAlign=middle;spacingLeft=4;spacingRight=4;overflow=hidden;points=[[0,0.5],[1,0.5]];portConstraint=eastwest;rotatable=0;whiteSpace=wrap;html=1;" parent="92ZO8FLdLCJEEevnyuCZ-44" vertex="1">
                    <mxGeometry y="30" width="140.76923076923077" height="87.3529411764706" as="geometry"/>
                </mxCell>
                <mxCell id="92ZO8FLdLCJEEevnyuCZ-62" value="" style="group" parent="9" vertex="1" connectable="0">
                    <mxGeometry x="-10" y="55.59" width="120" height="120" as="geometry"/>
                </mxCell>
                <mxCell id="92ZO8FLdLCJEEevnyuCZ-42" value="&lt;font size=&quot;1&quot;&gt;&lt;b style=&quot;font-size: 17px; background-color: rgb(22, 123, 20);&quot;&gt;Character&lt;/b&gt;&lt;/font&gt;" style="whiteSpace=wrap;html=1;aspect=fixed;" parent="92ZO8FLdLCJEEevnyuCZ-62" vertex="1">
                    <mxGeometry width="120" height="120" as="geometry"/>
                </mxCell>
                <mxCell id="92ZO8FLdLCJEEevnyuCZ-43" value="std::string _name&lt;div&gt;AMateria* _inventory[4]&lt;/div&gt;" style="text;html=1;align=center;verticalAlign=middle;whiteSpace=wrap;rounded=0;strokeColor=default;" parent="92ZO8FLdLCJEEevnyuCZ-62" vertex="1">
                    <mxGeometry width="119.49" height="39.707142857142856" as="geometry"/>
                </mxCell>
                <mxCell id="92ZO8FLdLCJEEevnyuCZ-63" value="if there is enough space equip the AMateria* m" style="shape=note;whiteSpace=wrap;html=1;backgroundOutline=1;darkOpacity=0.05;" parent="9" vertex="1">
                    <mxGeometry x="265.8974358974359" width="172.05128205128204" height="79.41176470588235" as="geometry"/>
                </mxCell>
                <mxCell id="2" value="remove a AMateria from the inventory&amp;nbsp;&lt;br&gt;( need to delete it in the main )" style="shape=note;whiteSpace=wrap;html=1;backgroundOutline=1;darkOpacity=0.05;" parent="9" vertex="1">
                    <mxGeometry x="437.948717948718" y="95.29411764705883" width="172.05128205128204" height="79.41176470588235" as="geometry"/>
                </mxCell>
                <mxCell id="3" value="call the use function of the AMateria" style="shape=note;whiteSpace=wrap;html=1;backgroundOutline=1;darkOpacity=0.05;" parent="9" vertex="1">
                    <mxGeometry x="265.8974358974359" y="190.58823529411765" width="172.05128205128204" height="79.41176470588235" as="geometry"/>
                </mxCell>
                <mxCell id="5" value="" style="edgeStyle=segmentEdgeStyle;endArrow=classic;html=1;curved=0;rounded=0;endSize=8;startSize=8;exitX=1;exitY=0.368;exitDx=0;exitDy=0;exitPerimeter=0;entryX=0.5;entryY=1;entryDx=0;entryDy=0;entryPerimeter=0;" parent="9" source="92ZO8FLdLCJEEevnyuCZ-45" target="92ZO8FLdLCJEEevnyuCZ-63" edge="1">
                    <mxGeometry width="50" height="50" relative="1" as="geometry">
                        <mxPoint x="273.71794871794873" y="95.29411764705883" as="sourcePoint"/>
                        <mxPoint x="312.8205128205128" y="55.58823529411765" as="targetPoint"/>
                    </mxGeometry>
                </mxCell>
                <mxCell id="6" value="" style="edgeStyle=segmentEdgeStyle;endArrow=classic;html=1;curved=0;rounded=0;endSize=8;startSize=8;exitX=1;exitY=0.901;exitDx=0;exitDy=0;exitPerimeter=0;entryX=0.5;entryY=0;entryDx=0;entryDy=0;entryPerimeter=0;" parent="9" source="92ZO8FLdLCJEEevnyuCZ-45" target="3" edge="1">
                    <mxGeometry width="50" height="50" relative="1" as="geometry">
                        <mxPoint x="273.71794871794873" y="95.29411764705883" as="sourcePoint"/>
                        <mxPoint x="312.8205128205128" y="55.58823529411765" as="targetPoint"/>
                    </mxGeometry>
                </mxCell>
                <mxCell id="8" value="" style="edgeStyle=segmentEdgeStyle;endArrow=classic;html=1;curved=0;rounded=0;endSize=8;startSize=8;exitX=1.001;exitY=0.637;exitDx=0;exitDy=0;exitPerimeter=0;entryX=0;entryY=0.5;entryDx=0;entryDy=0;entryPerimeter=0;" parent="9" source="92ZO8FLdLCJEEevnyuCZ-45" target="2" edge="1">
                    <mxGeometry width="50" height="50" relative="1" as="geometry">
                        <mxPoint x="273.71794871794873" y="95.29411764705883" as="sourcePoint"/>
                        <mxPoint x="312.8205128205128" y="55.58823529411765" as="targetPoint"/>
                        <Array as="points"/>
                    </mxGeometry>
                </mxCell>
                <mxCell id="16" value="&lt;b&gt;&lt;font style=&quot;font-size: 29px;&quot;&gt;The Character&amp;nbsp;&lt;br&gt;use the AMateria&lt;br&gt;&lt;/font&gt;&lt;/b&gt;" style="text;html=1;strokeColor=#071669;fillColor=#072d78;align=center;verticalAlign=middle;whiteSpace=wrap;rounded=0;fontColor=#ffffff;" parent="9" vertex="1">
                    <mxGeometry x="15.64" y="202.5" width="226.79" height="117.5" as="geometry"/>
                </mxCell>
                <mxCell id="11" value="" style="group" parent="1" vertex="1" connectable="0">
                    <mxGeometry x="180" y="530" width="880" height="308.11" as="geometry"/>
                </mxCell>
                <mxCell id="92ZO8FLdLCJEEevnyuCZ-10" value="&lt;font style=&quot;font-size: 14px;&quot;&gt;&lt;b style=&quot;background-color: rgb(14, 103, 14);&quot;&gt;AMateria&lt;/b&gt;&lt;/font&gt;" style="whiteSpace=wrap;html=1;aspect=fixed;" parent="11" vertex="1">
                    <mxGeometry x="369.03" y="197.14" width="110.97" height="110.97" as="geometry"/>
                </mxCell>
                <mxCell id="92ZO8FLdLCJEEevnyuCZ-15" value="abstract class" style="text;html=1;align=center;verticalAlign=middle;whiteSpace=wrap;rounded=0;strokeColor=default;" parent="11" vertex="1">
                    <mxGeometry x="369.03" y="282.40000000000003" width="110.97" height="25.71" as="geometry"/>
                </mxCell>
                <mxCell id="92ZO8FLdLCJEEevnyuCZ-17" value="std::string _type" style="text;html=1;align=center;verticalAlign=middle;whiteSpace=wrap;rounded=0;strokeColor=default;" parent="11" vertex="1">
                    <mxGeometry x="369.03225806451616" y="197.14285714285714" width="113.5483870967742" height="25.71428571428571" as="geometry"/>
                </mxCell>
                <mxCell id="92ZO8FLdLCJEEevnyuCZ-20" value="&lt;b&gt;&lt;font style=&quot;font-size: 14px;&quot;&gt;Cure&lt;/font&gt;&lt;/b&gt;" style="whiteSpace=wrap;html=1;aspect=fixed;" parent="11" vertex="1">
                    <mxGeometry x="482.58" y="68.57" width="77.42" height="77.42" as="geometry"/>
                </mxCell>
                <mxCell id="92ZO8FLdLCJEEevnyuCZ-19" value="" style="edgeStyle=orthogonalEdgeStyle;rounded=0;orthogonalLoop=1;jettySize=auto;html=1;entryX=0;entryY=0.5;entryDx=0;entryDy=0;exitX=0.5;exitY=0;exitDx=0;exitDy=0;" parent="11" source="92ZO8FLdLCJEEevnyuCZ-17" target="92ZO8FLdLCJEEevnyuCZ-20" edge="1">
                    <mxGeometry relative="1" as="geometry">
                        <mxPoint x="425.80645161290323" y="102.85714285714285" as="targetPoint"/>
                    </mxGeometry>
                </mxCell>
                <mxCell id="92ZO8FLdLCJEEevnyuCZ-21" value="&lt;b&gt;&lt;font style=&quot;font-size: 14px;&quot;&gt;Ice&lt;/font&gt;&lt;/b&gt;" style="whiteSpace=wrap;html=1;aspect=fixed;" parent="11" vertex="1">
                    <mxGeometry x="293.33333333333337" y="68.57142857142857" width="68.57142857142857" height="68.57142857142857" as="geometry"/>
                </mxCell>
                <mxCell id="92ZO8FLdLCJEEevnyuCZ-22" value="" style="edgeStyle=orthogonalEdgeStyle;rounded=0;orthogonalLoop=1;jettySize=auto;html=1;entryX=1;entryY=0.5;entryDx=0;entryDy=0;exitX=0.5;exitY=0;exitDx=0;exitDy=0;" parent="11" source="92ZO8FLdLCJEEevnyuCZ-17" target="92ZO8FLdLCJEEevnyuCZ-21" edge="1">
                    <mxGeometry relative="1" as="geometry">
                        <mxPoint x="435.2688172043011" y="205.7142857142857" as="sourcePoint"/>
                        <mxPoint x="492.0430107526882" y="111.42857142857142" as="targetPoint"/>
                        <Array as="points">
                            <mxPoint x="425.80645161290323" y="102.85714285714285"/>
                        </Array>
                    </mxGeometry>
                </mxCell>
                <mxCell id="92ZO8FLdLCJEEevnyuCZ-23" value="ICharacter" style="text;html=1;align=center;verticalAlign=middle;whiteSpace=wrap;rounded=0;strokeColor=default;" parent="11" vertex="1">
                    <mxGeometry x="293.33333333333337" y="111.42857142857142" width="75.6989247311828" height="25.71428571428571" as="geometry"/>
                </mxCell>
                <mxCell id="92ZO8FLdLCJEEevnyuCZ-24" value="ICharacter" style="text;html=1;align=center;verticalAlign=middle;whiteSpace=wrap;rounded=0;strokeColor=default;" parent="11" vertex="1">
                    <mxGeometry x="483.4406451612904" y="119.99857142857141" width="75.6989247311828" height="25.71428571428571" as="geometry"/>
                </mxCell>
                <mxCell id="92ZO8FLdLCJEEevnyuCZ-25" value="inherit" style="text;html=1;align=center;verticalAlign=middle;whiteSpace=wrap;rounded=0;" parent="11" vertex="1">
                    <mxGeometry x="397.4193548387097" y="77.14285714285714" width="56.7741935483871" height="25.71428571428571" as="geometry"/>
                </mxCell>
                <mxCell id="92ZO8FLdLCJEEevnyuCZ-29" value="func" style="swimlane;fontStyle=0;childLayout=stackLayout;horizontal=1;startSize=30;horizontalStack=0;resizeParent=1;resizeParentMax=0;resizeLast=0;collapsible=1;marginBottom=0;whiteSpace=wrap;html=1;" parent="11" vertex="1">
                    <mxGeometry x="558.2795698924731" y="68.57142857142857" width="94.62" height="90.00428571428571" as="geometry"/>
                </mxCell>
                <mxCell id="92ZO8FLdLCJEEevnyuCZ-30" value="clone" style="text;strokeColor=none;fillColor=none;align=left;verticalAlign=middle;spacingLeft=4;spacingRight=4;overflow=hidden;points=[[0,0.5],[1,0.5]];portConstraint=eastwest;rotatable=0;whiteSpace=wrap;html=1;" parent="92ZO8FLdLCJEEevnyuCZ-29" vertex="1">
                    <mxGeometry y="30" width="94.62" height="25.71428571428571" as="geometry"/>
                </mxCell>
                <mxCell id="92ZO8FLdLCJEEevnyuCZ-31" value="use (ICharacter)" style="text;strokeColor=none;fillColor=none;align=left;verticalAlign=middle;spacingLeft=4;spacingRight=4;overflow=hidden;points=[[0,0.5],[1,0.5]];portConstraint=eastwest;rotatable=0;whiteSpace=wrap;html=1;" parent="92ZO8FLdLCJEEevnyuCZ-29" vertex="1">
                    <mxGeometry y="55.71428571428571" width="94.62" height="34.29" as="geometry"/>
                </mxCell>
                <mxCell id="92ZO8FLdLCJEEevnyuCZ-33" value="func" style="swimlane;fontStyle=0;childLayout=stackLayout;horizontal=1;startSize=30;horizontalStack=0;resizeParent=1;resizeParentMax=0;resizeLast=0;collapsible=1;marginBottom=0;whiteSpace=wrap;html=1;" parent="11" vertex="1">
                    <mxGeometry x="198.70967741935485" y="68.57142857142857" width="94.62" height="90.00428571428571" as="geometry"/>
                </mxCell>
                <mxCell id="92ZO8FLdLCJEEevnyuCZ-34" value="clone" style="text;strokeColor=none;fillColor=none;align=left;verticalAlign=middle;spacingLeft=4;spacingRight=4;overflow=hidden;points=[[0,0.5],[1,0.5]];portConstraint=eastwest;rotatable=0;whiteSpace=wrap;html=1;" parent="92ZO8FLdLCJEEevnyuCZ-33" vertex="1">
                    <mxGeometry y="30" width="94.62" height="25.71428571428571" as="geometry"/>
                </mxCell>
                <mxCell id="92ZO8FLdLCJEEevnyuCZ-35" value="use (ICharacter)" style="text;strokeColor=none;fillColor=none;align=left;verticalAlign=middle;spacingLeft=4;spacingRight=4;overflow=hidden;points=[[0,0.5],[1,0.5]];portConstraint=eastwest;rotatable=0;whiteSpace=wrap;html=1;" parent="92ZO8FLdLCJEEevnyuCZ-33" vertex="1">
                    <mxGeometry y="55.71428571428571" width="94.62" height="34.29" as="geometry"/>
                </mxCell>
                <mxCell id="92ZO8FLdLCJEEevnyuCZ-36" value="func" style="swimlane;fontStyle=0;childLayout=stackLayout;horizontal=1;startSize=30;horizontalStack=0;resizeParent=1;resizeParentMax=0;resizeLast=0;collapsible=1;marginBottom=0;whiteSpace=wrap;html=1;" parent="11" vertex="1">
                    <mxGeometry x="482.58064516129036" y="197.14285714285714" width="94.6236559139785" height="55.71428571428571" as="geometry">
                        <mxRectangle x="430" y="270" width="60" height="30" as="alternateBounds"/>
                    </mxGeometry>
                </mxCell>
                <mxCell id="92ZO8FLdLCJEEevnyuCZ-37" value="getType" style="text;strokeColor=none;fillColor=none;align=left;verticalAlign=middle;spacingLeft=4;spacingRight=4;overflow=hidden;points=[[0,0.5],[1,0.5]];portConstraint=eastwest;rotatable=0;whiteSpace=wrap;html=1;" parent="92ZO8FLdLCJEEevnyuCZ-36" vertex="1">
                    <mxGeometry y="30" width="94.6236559139785" height="25.71428571428571" as="geometry"/>
                </mxCell>
                <mxCell id="92ZO8FLdLCJEEevnyuCZ-52" style="edgeStyle=orthogonalEdgeStyle;rounded=0;orthogonalLoop=1;jettySize=auto;html=1;entryX=0.5;entryY=1;entryDx=0;entryDy=0;entryPerimeter=0;" parent="11" edge="1">
                    <mxGeometry relative="1" as="geometry">
                        <mxPoint x="733.3333333333334" y="68.57142857142857" as="targetPoint"/>
                        <mxPoint x="652.9032258064517" y="107.14285714285714" as="sourcePoint"/>
                    </mxGeometry>
                </mxCell>
                <mxCell id="92ZO8FLdLCJEEevnyuCZ-53" style="edgeStyle=orthogonalEdgeStyle;rounded=0;orthogonalLoop=1;jettySize=auto;html=1;exitX=1;exitY=0.5;exitDx=0;exitDy=0;" parent="11" edge="1">
                    <mxGeometry relative="1" as="geometry">
                        <mxPoint x="747.5268817204302" y="132.85714285714286" as="targetPoint"/>
                        <mxPoint x="652.9032258064517" y="132.85714285714286" as="sourcePoint"/>
                        <Array as="points">
                            <mxPoint x="728.6021505376344" y="132.85714285714286"/>
                            <mxPoint x="728.6021505376344" y="132.85714285714286"/>
                        </Array>
                    </mxGeometry>
                </mxCell>
                <mxCell id="92ZO8FLdLCJEEevnyuCZ-54" value="uses the AMateria" style="shape=note;whiteSpace=wrap;html=1;backgroundOutline=1;darkOpacity=0.05;size=0;" parent="11" vertex="1">
                    <mxGeometry x="747.5268817204302" y="120" width="132.4731182795699" height="25.71428571428571" as="geometry"/>
                </mxCell>
                <mxCell id="92ZO8FLdLCJEEevnyuCZ-55" value="return a copy of the cure AMateria" style="shape=note;whiteSpace=wrap;html=1;backgroundOutline=1;darkOpacity=0.05;size=24;" parent="11" vertex="1">
                    <mxGeometry x="709.6774193548388" width="113.5483870967742" height="68.57142857142857" as="geometry"/>
                </mxCell>
                <mxCell id="92ZO8FLdLCJEEevnyuCZ-56" style="edgeStyle=orthogonalEdgeStyle;rounded=0;orthogonalLoop=1;jettySize=auto;html=1;entryX=0.5;entryY=1;entryDx=0;entryDy=0;entryPerimeter=0;exitX=0;exitY=0.5;exitDx=0;exitDy=0;" parent="11" source="92ZO8FLdLCJEEevnyuCZ-34" target="92ZO8FLdLCJEEevnyuCZ-59" edge="1">
                    <mxGeometry relative="1" as="geometry">
                        <mxPoint x="23.655913978494624" y="85.71428571428571" as="targetPoint"/>
                        <mxPoint x="-56.7741935483871" y="124.28571428571428" as="sourcePoint"/>
                    </mxGeometry>
                </mxCell>
                <mxCell id="92ZO8FLdLCJEEevnyuCZ-58" value="uses the AMateria" style="shape=note;whiteSpace=wrap;html=1;backgroundOutline=1;darkOpacity=0.05;size=17;" parent="11" vertex="1">
                    <mxGeometry y="120" width="132.4731182795699" height="25.71428571428571" as="geometry"/>
                </mxCell>
                <mxCell id="92ZO8FLdLCJEEevnyuCZ-59" value="return a copy of the cure AMateria" style="shape=note;whiteSpace=wrap;html=1;backgroundOutline=1;darkOpacity=0.05;size=24;" parent="11" vertex="1">
                    <mxGeometry x="37.8494623655914" width="113.5483870967742" height="68.57142857142857" as="geometry"/>
                </mxCell>
                <mxCell id="92ZO8FLdLCJEEevnyuCZ-61" style="edgeStyle=orthogonalEdgeStyle;rounded=0;orthogonalLoop=1;jettySize=auto;html=1;exitX=0;exitY=0.634;exitDx=0;exitDy=0;entryX=1;entryY=0.634;entryDx=0;entryDy=0;entryPerimeter=0;exitPerimeter=0;" parent="11" source="92ZO8FLdLCJEEevnyuCZ-35" target="92ZO8FLdLCJEEevnyuCZ-58" edge="1">
                    <mxGeometry relative="1" as="geometry"/>
                </mxCell>
                <mxCell id="15" value="&lt;b&gt;&lt;font style=&quot;font-size: 29px;&quot;&gt;the AMateria&lt;/font&gt;&lt;/b&gt;" style="text;html=1;strokeColor=#071669;fillColor=#072d78;align=center;verticalAlign=middle;whiteSpace=wrap;rounded=0;fontColor=#ffffff;" parent="11" vertex="1">
                    <mxGeometry x="293.33333333333337" y="-8.571428571428571" width="274.40860215053766" height="60" as="geometry"/>
                </mxCell>
                <mxCell id="13" value="" style="group" parent="1" vertex="1" connectable="0">
                    <mxGeometry x="90" y="160" width="340" height="280" as="geometry"/>
                </mxCell>
                <mxCell id="92ZO8FLdLCJEEevnyuCZ-26" value="&lt;b&gt;&lt;font style=&quot;font-size: 15px; background-color: rgb(21, 93, 14);&quot;&gt;MateriaSource&lt;/font&gt;&lt;/b&gt;" style="whiteSpace=wrap;html=1;aspect=fixed;" parent="13" vertex="1">
                    <mxGeometry y="102.66666666666667" width="111.39837398373984" height="111.39837398373984" as="geometry"/>
                </mxCell>
                <mxCell id="92ZO8FLdLCJEEevnyuCZ-27" value="AMateria* _inventory[4]" style="text;html=1;align=center;verticalAlign=middle;whiteSpace=wrap;rounded=0;strokeColor=default;" parent="13" vertex="1">
                    <mxGeometry y="102.66666666666667" width="116.3157894736842" height="28.000000000000004" as="geometry"/>
                </mxCell>
                <mxCell id="92ZO8FLdLCJEEevnyuCZ-39" value="func" style="swimlane;fontStyle=0;childLayout=stackLayout;horizontal=1;startSize=30;horizontalStack=0;resizeParent=1;resizeParentMax=0;resizeLast=0;collapsible=1;marginBottom=0;whiteSpace=wrap;html=1;" parent="13" vertex="1">
                    <mxGeometry x="116.3157894736842" y="102.66666666666667" width="89.47368421052632" height="86" as="geometry"/>
                </mxCell>
                <mxCell id="92ZO8FLdLCJEEevnyuCZ-40" value="learnMateria (AMateria)" style="text;strokeColor=none;fillColor=none;align=left;verticalAlign=middle;spacingLeft=4;spacingRight=4;overflow=hidden;points=[[0,0.5],[1,0.5]];portConstraint=eastwest;rotatable=0;whiteSpace=wrap;html=1;" parent="92ZO8FLdLCJEEevnyuCZ-39" vertex="1">
                    <mxGeometry y="30" width="89.47368421052632" height="28.000000000000004" as="geometry"/>
                </mxCell>
                <mxCell id="92ZO8FLdLCJEEevnyuCZ-41" value="createMateria (std::string)" style="text;strokeColor=none;fillColor=none;align=left;verticalAlign=middle;spacingLeft=4;spacingRight=4;overflow=hidden;points=[[0,0.5],[1,0.5]];portConstraint=eastwest;rotatable=0;whiteSpace=wrap;html=1;" parent="92ZO8FLdLCJEEevnyuCZ-39" vertex="1">
                    <mxGeometry y="58" width="89.47368421052632" height="28.000000000000004" as="geometry"/>
                </mxCell>
                <mxCell id="92ZO8FLdLCJEEevnyuCZ-47" style="edgeStyle=orthogonalEdgeStyle;rounded=0;orthogonalLoop=1;jettySize=auto;html=1;entryX=0.5;entryY=1;entryDx=0;entryDy=0;entryPerimeter=0;" parent="13" source="92ZO8FLdLCJEEevnyuCZ-40" target="92ZO8FLdLCJEEevnyuCZ-49" edge="1">
                    <mxGeometry relative="1" as="geometry">
                        <mxPoint x="322.10526315789474" y="102.66666666666679" as="targetPoint"/>
                    </mxGeometry>
                </mxCell>
                <mxCell id="92ZO8FLdLCJEEevnyuCZ-49" value="add a new AMateria object to the learning inventory max 4&amp;nbsp;" style="shape=note;whiteSpace=wrap;html=1;backgroundOutline=1;darkOpacity=0.05;" parent="13" vertex="1">
                    <mxGeometry x="223.6842105263158" width="116.3157894736842" height="102.66666666666667" as="geometry"/>
                </mxCell>
                <mxCell id="92ZO8FLdLCJEEevnyuCZ-50" value="if the type is known returns a new AMateria" style="shape=note;whiteSpace=wrap;html=1;backgroundOutline=1;darkOpacity=0.05;size=27;" parent="13" vertex="1">
                    <mxGeometry x="223.6842105263158" y="196.00000000000003" width="116.3157894736842" height="84.00000000000001" as="geometry"/>
                </mxCell>
                <mxCell id="92ZO8FLdLCJEEevnyuCZ-51" style="edgeStyle=orthogonalEdgeStyle;rounded=0;orthogonalLoop=1;jettySize=auto;html=1;entryX=0.5;entryY=0;entryDx=0;entryDy=0;entryPerimeter=0;exitX=1;exitY=0.5;exitDx=0;exitDy=0;" parent="13" source="92ZO8FLdLCJEEevnyuCZ-41" target="92ZO8FLdLCJEEevnyuCZ-50" edge="1">
                    <mxGeometry relative="1" as="geometry">
                        <mxPoint x="281.84210526315786" y="102.66666666666667" as="targetPoint"/>
                        <mxPoint x="205.78947368421052" y="144.66666666666669" as="sourcePoint"/>
                    </mxGeometry>
                </mxCell>
                <mxCell id="14" value="&lt;b&gt;&lt;font style=&quot;font-size: 29px;&quot;&gt;Create the AMateria&lt;/font&gt;&lt;/b&gt;" style="text;html=1;strokeColor=#071669;fillColor=#072d78;align=center;verticalAlign=middle;whiteSpace=wrap;rounded=0;fontColor=#ffffff;" parent="13" vertex="1">
                    <mxGeometry x="-53.684210526315795" width="259.4736842105263" height="65.33333333333334" as="geometry"/>
                </mxCell>
            </root>
        </mxGraphModel>
    </diagram>
</mxfile>